<svg width="13" height="6" viewBox="0 0 13 6" fill="none" xmlns="http://www.w3.org/2000/svg">
<g clip-path="url(#clip0_23_7)">
<g clip-path="url(#clip1_23_7)">
<path d="M3.41582 5.99996V2.68796C3.41582 2.41596 3.33582 2.20396 3.17582 2.05196C3.01582 1.89196 2.81182 1.81196 2.56382 1.81196C2.39582 1.81196 2.24382 1.84796 2.10782 1.91996C1.97982 1.99196 1.87982 2.09196 1.80782 2.21996C1.73582 2.34796 1.69982 2.50396 1.69982 2.68796L0.883816 2.30396C0.883816 1.83196 0.987817 1.42796 1.19582 1.09196C1.40382 0.747963 1.68782 0.483963 2.04782 0.299963C2.41582 0.107963 2.83182 0.0119629 3.29582 0.0119629C3.71982 0.0119629 4.09582 0.111963 4.42382 0.311963C4.75982 0.503963 5.02382 0.763963 5.21582 1.09196C5.40782 1.41996 5.50382 1.79196 5.50382 2.20796V5.99996H3.41582ZM-0.388184 5.99996V0.131963H1.69982V5.99996H-0.388184ZM6.60791 5.99996V0.131963H8.69591V5.99996H6.60791ZM8.69591 2.80796L7.75991 2.01596C7.99191 1.35196 8.29991 0.851963 8.68391 0.515963C9.06792 0.179963 9.56792 0.0119629 10.1839 0.0119629C10.4639 0.0119629 10.7039 0.047963 10.9039 0.119963C11.1119 0.191963 11.2879 0.303963 11.4319 0.455963L10.2199 2.07596C10.1559 2.00396 10.0639 1.94796 9.94392 1.90796C9.83192 1.85996 9.70392 1.83596 9.55992 1.83596C9.28792 1.83596 9.07592 1.91996 8.92391 2.08796C8.77191 2.24796 8.69591 2.48796 8.69591 2.80796Z" fill="#FF0000"/>
<path d="M8 4H4V6H8V4Z" fill="#FF0000"/>
</g>
<g clip-path="url(#clip2_23_7)">
<path d="M3.41582 5.99996V2.68796C3.41582 2.41596 3.33582 2.20396 3.17582 2.05196C3.01582 1.89196 2.81182 1.81196 2.56382 1.81196C2.39582 1.81196 2.24382 1.84796 2.10782 1.91996C1.97982 1.99196 1.87982 2.09196 1.80782 2.21996C1.73582 2.34796 1.69982 2.50396 1.69982 2.68796L0.883816 2.30396C0.883816 1.83196 0.987817 1.42796 1.19582 1.09196C1.40382 0.747963 1.68782 0.483963 2.04782 0.299963C2.41582 0.107963 2.83182 0.0119629 3.29582 0.0119629C3.71982 0.0119629 4.09582 0.111963 4.42382 0.311963C4.75982 0.503963 5.02382 0.763963 5.21582 1.09196C5.40782 1.41996 5.50382 1.79196 5.50382 2.20796V5.99996H3.41582ZM-0.388184 5.99996V0.131963H1.69982V5.99996H-0.388184ZM6.60791 5.99996V0.131963H8.69591V5.99996H6.60791ZM8.69591 2.80796L7.75991 2.01596C7.99191 1.35196 8.29991 0.851963 8.68391 0.515963C9.06792 0.179963 9.56792 0.0119629 10.1839 0.0119629C10.4639 0.0119629 10.7039 0.047963 10.9039 0.119963C11.1119 0.191963 11.2879 0.303963 11.4319 0.455963L10.2199 2.07596C10.1559 2.00396 10.0639 1.94796 9.94392 1.90796C9.83192 1.85996 9.70392 1.83596 9.55992 1.83596C9.28792 1.83596 9.07592 1.91996 8.92391 2.08796C8.77191 2.24796 8.69591 2.48796 8.69591 2.80796Z" fill="#7AFF4B"/>
<path d="M8 4H4V6H8V4Z" fill="#7AFF4B"/>
</g>
<path d="M4.41582 5.99996V2.68796C4.41582 2.41596 4.33582 2.20396 4.17582 2.05196C4.01582 1.89196 3.81182 1.81196 3.56382 1.81196C3.39582 1.81196 3.24382 1.84796 3.10782 1.91996C2.97982 1.99196 2.87982 2.09196 2.80782 2.21996C2.73582 2.34796 2.69982 2.50396 2.69982 2.68796L1.88382 2.30396C1.88382 1.83196 1.98782 1.42796 2.19582 1.09196C2.40382 0.747963 2.68782 0.483963 3.04782 0.299963C3.41582 0.107963 3.83182 0.0119629 4.29582 0.0119629C4.71982 0.0119629 5.09582 0.111963 5.42382 0.311963C5.75982 0.503963 6.02382 0.763963 6.21582 1.09196C6.40782 1.41996 6.50382 1.79196 6.50382 2.20796V5.99996H4.41582ZM0.611816 5.99996V0.131963H2.69982V5.99996H0.611816ZM7.60791 5.99996V0.131963H9.69591V5.99996H7.60791ZM9.69591 2.80796L8.75991 2.01596C8.99191 1.35196 9.29991 0.851963 9.68391 0.515963C10.0679 0.179963 10.5679 0.0119629 11.1839 0.0119629C11.4639 0.0119629 11.7039 0.047963 11.9039 0.119963C12.1119 0.191963 12.2879 0.303963 12.4319 0.455963L11.2199 2.07596C11.1559 2.00396 11.0639 1.94796 10.9439 1.90796C10.8319 1.85996 10.7039 1.83596 10.5599 1.83596C10.2879 1.83596 10.0759 1.91996 9.92391 2.08796C9.77191 2.24796 9.69591 2.48796 9.69591 2.80796Z" fill="#0F1D31"/>
<path d="M9 4H5V6H9V4Z" fill="#0F1D31"/>
</g>
<defs>
<clipPath id="clip0_23_7">
<rect width="13" height="6" fill="white"/>
</clipPath>
<clipPath id="clip1_23_7">
<rect width="13" height="6" fill="white" transform="translate(-1)"/>
</clipPath>
<clipPath id="clip2_23_7">
<rect width="13" height="6" fill="white" transform="translate(-1)"/>
</clipPath>
</defs>
</svg>
