<svg width="53" height="26" viewBox="0 0 53 26" fill="#f3f4f6" xmlns="http://www.w3.org/2000/svg">
<path d="M18 25V11.704C18 10.488 17.616 9.512 16.848 8.776C16.112 8.008 15.168 7.624 14.016 7.624C13.216 7.624 12.512 7.8 11.904 8.152C11.296 8.472 10.816 8.952 10.464 9.592C10.112 10.2 9.936 10.904 9.936 11.704L7.104 10.312C7.104 8.488 7.504 6.888 8.304 5.512C9.104 4.136 10.208 3.08 11.616 2.344C13.056 1.576 14.672 1.192 16.464 1.192C18.192 1.192 19.712 1.608 21.024 2.44C22.368 3.24 23.424 4.312 24.192 5.656C24.96 7 25.344 8.472 25.344 10.072V25H18ZM2.592 25V1.672H9.936V25H2.592ZM30.0608 25V1.672H37.4048V25H30.0608ZM37.4048 12.184L34.3328 9.784C34.9408 7.064 35.9648 4.952 37.4048 3.448C38.8448 1.944 40.8448 1.192 43.4048 1.192C44.5248 1.192 45.5008 1.368 46.3328 1.72C47.1968 2.04 47.9488 2.552 48.5888 3.256L44.2208 8.776C43.9008 8.424 43.5008 8.152 43.0208 7.96C42.5408 7.768 41.9968 7.672 41.3888 7.672C40.1728 7.672 39.1968 8.056 38.4608 8.824C37.7568 9.56 37.4048 10.68 37.4048 12.184Z" fill="#f3f4f6"/>
<rect x="22" y="19" width="9" height="6" fill="#f3f4f6"/>
</svg>
    