<svg width="20" height="17" viewBox="0 0 20 17" fill="#64748b" xmlns="http://www.w3.org/2000/svg">
<path d="M20.001 1.9506C19.2493 2.2767 18.4544 2.49226 17.641 2.5906C18.4991 2.07792 19.1422 1.27138 19.451 0.3206C18.6445 0.800663 17.7617 1.1389 16.841 1.3206C16.2255 0.653172 15.4059 0.208897 14.5108 0.0574517C13.6156 -0.0939932 12.6955 0.0559587 11.8948 0.48379C11.094 0.911621 10.4579 1.59313 10.0862 2.42144C9.71452 3.24974 9.62827 4.17799 9.84098 5.0606C8.2104 4.97813 6.61542 4.55355 5.15963 3.81446C3.70384 3.07537 2.41982 2.03829 1.39098 0.7706C1.03011 1.40077 0.840496 2.11442 0.840976 2.8406C0.839697 3.51498 1.00519 4.17922 1.32273 4.77416C1.64027 5.36911 2.09999 5.87631 2.66098 6.2506C2.00895 6.23286 1.37086 6.0579 0.800977 5.7406V5.7906C0.805863 6.73549 1.13697 7.64969 1.73829 8.37857C2.33961 9.10744 3.17423 9.60624 4.10098 9.7906C3.74423 9.89917 3.37385 9.95641 3.00098 9.9606C2.74287 9.95759 2.4854 9.93418 2.23098 9.8906C2.49489 10.7034 3.0056 11.4137 3.69205 11.9228C4.3785 12.4318 5.20655 12.7142 6.06098 12.7306C4.61818 13.8659 2.83686 14.4855 1.00098 14.4906C0.666712 14.4917 0.332712 14.4717 0.000976562 14.4306C1.8754 15.6409 4.05979 16.2833 6.29098 16.2806C7.83067 16.2966 9.35811 16.0056 10.7841 15.4247C12.2101 14.8437 13.506 13.9845 14.5962 12.8971C15.6864 11.8097 16.5489 10.516 17.1335 9.09151C17.7181 7.66702 18.013 6.14033 18.001 4.6006C18.001 4.4306 18.001 4.2506 18.001 4.0706C18.7857 3.48541 19.4625 2.76803 20.001 1.9506Z" fill="#64748b"/>
</svg>
